<svg xmlns="http://www.w3.org/2000/svg" viewBox="0 0 512 512" role="img" aria-label="DevSchool Pro icon">
  <defs>
    <linearGradient id="bg" x1="0" y1="0" x2="1" y2="1">
      <stop offset="0%" stop-color="#1d4ed8" />
      <stop offset="100%" stop-color="#4f46e5" />
    </linearGradient>
    <linearGradient id="shine" x1="0" y1="0" x2="1" y2="0">
      <stop offset="0%" stop-color="#93c5fd" stop-opacity="0.6" />
      <stop offset="100%" stop-color="#93c5fd" stop-opacity="0" />
    </linearGradient>
  </defs>

  <rect x="24" y="24" width="464" height="464" rx="104" fill="url(#bg)" />
  <rect x="70" y="92" width="372" height="40" rx="20" fill="url(#shine)" />

  <path d="M188 288l-48-48 48-48" fill="none" stroke="#fff" stroke-width="28" stroke-linecap="round" stroke-linejoin="round" />
  <path d="M324 192l48 48-48 48" fill="none" stroke="#fff" stroke-width="28" stroke-linecap="round" stroke-linejoin="round" />
  <rect x="232" y="176" width="48" height="128" rx="24" fill="#fff" transform="rotate(15 256 240)" />

  <path d="M150 156l106-42 106 42-106 42-106-42z" fill="#e0e7ff" />
  <path d="M220 184v30c0 10 16 20 36 20s36-10 36-20v-30" fill="none" stroke="#c7d2fe" stroke-width="12" stroke-linecap="round" />
</svg>
