<svg xmlns="http://www.w3.org/2000/svg" viewBox="0 0 64 64" role="img" aria-label="JavaScript logo">
  <rect width="64" height="64" rx="14" fill="#F7DF1E"/>
  <path fill="#1a1a1a" d="M27.3 47.7c-2.4 0-4.4-.8-5.9-2.3l2.9-3.5c.8.9 1.7 1.4 2.7 1.4 1.3 0 2-1 2-2.8V26h5.1v14.6c0 2.3-.7 4.1-2 5.3-1.3 1.2-3 1.8-4.8 1.8zm15.8 0c-3.1 0-5.9-1-8.1-2.9l2.6-3.7c1.7 1.4 3.6 2.2 5.7 2.2 1.8 0 2.8-.7 2.8-1.8 0-.6-.2-1.1-.8-1.4-.5-.3-1.5-.7-3.2-1-2.4-.5-4.1-1.2-5.2-2.1-1-.9-1.6-2.3-1.6-4.1 0-2 .8-3.5 2.3-4.7 1.5-1.2 3.4-1.8 5.8-1.8 2.8 0 5.2.8 7.1 2.3L48 33.5c-1.6-1.1-3.2-1.7-4.8-1.7-1.5 0-2.3.7-2.3 1.7 0 .7.3 1.2.9 1.5.6.3 1.8.7 3.6 1.1 2.3.5 3.9 1.2 4.9 2.2 1 .9 1.5 2.2 1.5 3.9 0 2-.8 3.7-2.3 4.9-1.5 1.2-3.5 1.8-6.3 1.8z"/>
</svg>
